<svg xmlns="http://www.w3.org/2000/svg" xmlns:xlink="http://www.w3.org/1999/xlink" width="500" zoomAndPan="magnify" viewBox="0 0 375 374.999991" height="500" preserveAspectRatio="xMidYMid meet" version="1.0"><defs><g/><clipPath id="9f8808822d"><path d="M 134.929688 102.070312 L 223 102.070312 L 223 203.292969 L 134.929688 203.292969 Z M 134.929688 102.070312 " clip-rule="nonzero"/></clipPath><clipPath id="a3dfc0b0b5"><path d="M 140 102.070312 L 239.929688 102.070312 L 239.929688 203.292969 L 140 203.292969 Z M 140 102.070312 " clip-rule="nonzero"/></clipPath></defs><rect x="-37.5" width="450" fill="#ffffff" y="-37.499999" height="449.999989" fill-opacity="1"/><rect x="-37.5" width="450" fill="#ffffff" y="-37.499999" height="449.999989" fill-opacity="1"/><g fill="#bd8b1e" fill-opacity="1"><g transform="translate(156.500252, 239.956494)"><g><path d="M 0.875 -6.53125 L 3.734375 -6.53125 C 4.429688 -6.53125 5.050781 -6.394531 5.59375 -6.125 C 6.132812 -5.851562 6.550781 -5.46875 6.84375 -4.96875 C 7.144531 -4.476562 7.296875 -3.910156 7.296875 -3.265625 C 7.296875 -2.617188 7.144531 -2.046875 6.84375 -1.546875 C 6.550781 -1.054688 6.132812 -0.675781 5.59375 -0.40625 C 5.050781 -0.132812 4.429688 0 3.734375 0 L 0.875 0 Z M 3.671875 -1.03125 C 4.148438 -1.03125 4.570312 -1.117188 4.9375 -1.296875 C 5.300781 -1.484375 5.582031 -1.742188 5.78125 -2.078125 C 5.976562 -2.421875 6.078125 -2.816406 6.078125 -3.265625 C 6.078125 -3.710938 5.976562 -4.101562 5.78125 -4.4375 C 5.582031 -4.78125 5.300781 -5.039062 4.9375 -5.21875 C 4.570312 -5.40625 4.148438 -5.5 3.671875 -5.5 L 2.09375 -5.5 L 2.09375 -1.03125 Z M 3.671875 -1.03125 "/></g></g></g><g fill="#bd8b1e" fill-opacity="1"><g transform="translate(171.657905, 239.956494)"><g><path d="M 5.109375 -1.515625 L 1.84375 -1.515625 L 1.203125 0 L -0.046875 0 L 2.890625 -6.53125 L 4.078125 -6.53125 L 7.03125 0 L 5.765625 0 Z M 4.703125 -2.46875 L 3.484375 -5.3125 L 2.25 -2.46875 Z M 4.703125 -2.46875 "/></g></g></g><g fill="#bd8b1e" fill-opacity="1"><g transform="translate(186.098196, 239.956494)"><g><path d="M 6.84375 -6.53125 L 4 0 L 2.8125 0 L -0.046875 -6.53125 L 1.265625 -6.53125 L 3.4375 -1.5 L 5.640625 -6.53125 Z M 6.84375 -6.53125 "/></g></g></g><g fill="#bd8b1e" fill-opacity="1"><g transform="translate(200.352155, 239.956494)"><g><path d="M 0.875 -6.53125 L 2.09375 -6.53125 L 2.09375 0 L 0.875 0 Z M 0.875 -6.53125 "/></g></g></g><g fill="#bd8b1e" fill-opacity="1"><g transform="translate(210.786397, 239.956494)"><g><path d="M 0.875 -6.53125 L 3.734375 -6.53125 C 4.429688 -6.53125 5.050781 -6.394531 5.59375 -6.125 C 6.132812 -5.851562 6.550781 -5.46875 6.84375 -4.96875 C 7.144531 -4.476562 7.296875 -3.910156 7.296875 -3.265625 C 7.296875 -2.617188 7.144531 -2.046875 6.84375 -1.546875 C 6.550781 -1.054688 6.132812 -0.675781 5.59375 -0.40625 C 5.050781 -0.132812 4.429688 0 3.734375 0 L 0.875 0 Z M 3.671875 -1.03125 C 4.148438 -1.03125 4.570312 -1.117188 4.9375 -1.296875 C 5.300781 -1.484375 5.582031 -1.742188 5.78125 -2.078125 C 5.976562 -2.421875 6.078125 -2.816406 6.078125 -3.265625 C 6.078125 -3.710938 5.976562 -4.101562 5.78125 -4.4375 C 5.582031 -4.78125 5.300781 -5.039062 4.9375 -5.21875 C 4.570312 -5.40625 4.148438 -5.5 3.671875 -5.5 L 2.09375 -5.5 L 2.09375 -1.03125 Z M 3.671875 -1.03125 "/></g></g></g><g fill="#bd8b1e" fill-opacity="1"><g transform="translate(147.816659, 252.706493)"><g><path d="M 6.671875 -6.53125 L 6.671875 0 L 5.6875 0 L 2.078125 -4.421875 L 2.078125 0 L 0.875 0 L 0.875 -6.53125 L 1.875 -6.53125 L 5.46875 -2.109375 L 5.46875 -6.53125 Z M 6.671875 -6.53125 "/></g></g></g><g fill="#bd8b1e" fill-opacity="1"><g transform="translate(162.825241, 252.706493)"><g><path d="M 5.328125 -3.34375 L 6.484375 -3.34375 L 6.484375 -0.734375 C 6.148438 -0.460938 5.757812 -0.253906 5.3125 -0.109375 C 4.863281 0.0234375 4.398438 0.09375 3.921875 0.09375 C 3.253906 0.09375 2.65625 -0.0507812 2.125 -0.34375 C 1.59375 -0.632812 1.171875 -1.03125 0.859375 -1.53125 C 0.554688 -2.039062 0.40625 -2.617188 0.40625 -3.265625 C 0.40625 -3.898438 0.554688 -4.472656 0.859375 -4.984375 C 1.171875 -5.492188 1.59375 -5.894531 2.125 -6.1875 C 2.664062 -6.476562 3.273438 -6.625 3.953125 -6.625 C 4.492188 -6.625 4.988281 -6.53125 5.4375 -6.34375 C 5.882812 -6.164062 6.257812 -5.90625 6.5625 -5.5625 L 5.796875 -4.8125 C 5.304688 -5.3125 4.707031 -5.5625 4 -5.5625 C 3.539062 -5.5625 3.128906 -5.460938 2.765625 -5.265625 C 2.410156 -5.078125 2.128906 -4.804688 1.921875 -4.453125 C 1.722656 -4.109375 1.625 -3.710938 1.625 -3.265625 C 1.625 -2.828125 1.722656 -2.429688 1.921875 -2.078125 C 2.128906 -1.734375 2.410156 -1.460938 2.765625 -1.265625 C 3.128906 -1.066406 3.539062 -0.96875 4 -0.96875 C 4.5 -0.96875 4.941406 -1.082031 5.328125 -1.3125 Z M 5.328125 -3.34375 "/></g></g></g><g fill="#bd8b1e" fill-opacity="1"><g transform="translate(177.4798, 252.706493)"><g><path d="M 3.6875 0.09375 C 2.78125 0.09375 2.078125 -0.15625 1.578125 -0.65625 C 1.078125 -1.164062 0.828125 -1.894531 0.828125 -2.84375 L 0.828125 -6.53125 L 2.03125 -6.53125 L 2.03125 -2.890625 C 2.03125 -1.609375 2.582031 -0.96875 3.6875 -0.96875 C 4.789062 -0.96875 5.34375 -1.609375 5.34375 -2.890625 L 5.34375 -6.53125 L 6.53125 -6.53125 L 6.53125 -2.84375 C 6.53125 -1.894531 6.28125 -1.164062 5.78125 -0.65625 C 5.28125 -0.15625 4.582031 0.09375 3.6875 0.09375 Z M 3.6875 0.09375 "/></g></g></g><g fill="#bd8b1e" fill-opacity="1"><g transform="translate(192.292745, 252.706493)"><g><path d="M 3.6875 -2.296875 L 3.6875 0 L 2.484375 0 L 2.484375 -2.28125 L -0.078125 -6.53125 L 1.21875 -6.53125 L 3.125 -3.34375 L 5.0625 -6.53125 L 6.25 -6.53125 Z M 3.6875 -2.296875 "/></g></g></g><g fill="#bd8b1e" fill-opacity="1"><g transform="translate(205.913194, 252.706493)"><g><path d="M 5.78125 -1.015625 L 5.78125 0 L 0.875 0 L 0.875 -6.53125 L 5.640625 -6.53125 L 5.640625 -5.515625 L 2.09375 -5.515625 L 2.09375 -3.8125 L 5.25 -3.8125 L 5.25 -2.8125 L 2.09375 -2.8125 L 2.09375 -1.015625 Z M 5.78125 -1.015625 "/></g></g></g><g fill="#bd8b1e" fill-opacity="1"><g transform="translate(219.617481, 252.706493)"><g><path d="M 6.671875 -6.53125 L 6.671875 0 L 5.6875 0 L 2.078125 -4.421875 L 2.078125 0 L 0.875 0 L 0.875 -6.53125 L 1.875 -6.53125 L 5.46875 -2.109375 L 5.46875 -6.53125 Z M 6.671875 -6.53125 "/></g></g></g><g clip-path="url(#9f8808822d)"><path fill="#f0c159" d="M 136.378906 102.097656 L 147.675781 114.820312 L 147.675781 190.515625 L 172.121094 190.515625 C 182.492188 190.515625 191.964844 186.324219 198.9375 179.363281 C 205.761719 172.550781 210.109375 163.097656 210.109375 152.742188 C 210.109375 142.238281 205.761719 132.804688 198.9375 125.972656 C 192.214844 119.285156 183.164062 115.09375 173.167969 114.820312 L 161.871094 102.097656 L 172.121094 102.097656 C 186.042969 102.097656 198.664062 107.859375 207.859375 117.042969 C 217.058594 126.097656 222.707031 138.824219 222.707031 152.722656 C 222.707031 166.617188 217.058594 179.238281 207.859375 188.421875 C 198.664062 197.601562 186.042969 203.242188 172.121094 203.242188 L 134.929688 203.242188 L 134.929688 102.097656 Z M 136.378906 102.097656 " fill-opacity="1" fill-rule="nonzero"/></g><g clip-path="url(#a3dfc0b0b5)"><path fill="#f0c159" d="M 239.929688 108.53125 L 239.929688 203.242188 L 230.855469 203.242188 L 214.832031 185.277344 C 217.585938 181.734375 219.832031 177.9375 221.53125 173.871094 L 227.179688 180.308594 L 227.179688 108.53125 Z M 201.8125 170.707031 L 150.046875 112.722656 L 140.578125 102.097656 L 157.523438 102.097656 L 161.722656 106.8125 L 206.539062 157.058594 C 206.011719 161.921875 204.3125 166.515625 201.8125 170.707031 Z M 150.046875 112.722656 L 159.5 104.316406 L 161.722656 106.8125 Z M 150.046875 112.722656 " fill-opacity="1" fill-rule="nonzero"/></g></svg>